<svg width="31" height="31" viewBox="0 0 31 31" fill="none" xmlns="http://www.w3.org/2000/svg">
<g clip-path="url(#clip0)">
<path d="M29.8401 13.6796L15.4917 28.0292L1.14337 13.6796C0.875695 13.421 0.449063 13.4284 0.190481 13.6961C-0.0617199 13.9573 -0.0617199 14.3713 0.190481 14.6324L15.0159 29.4578C15.2791 29.7209 15.7056 29.7209 15.9688 29.4578L30.7943 14.6324C31.0529 14.3647 31.0454 13.9381 30.7778 13.6795C30.5166 13.4272 30.1026 13.4272 29.8414 13.6795L29.8401 13.6796Z" fill="#888888"/>
<path d="M29.8401 1.54966L15.4917 15.8993L1.14337 1.54966C0.875695 1.29108 0.449063 1.29853 0.190481 1.56621C-0.0617199 1.82738 -0.0617199 2.24138 0.190481 2.50255L15.0159 17.328C15.2791 17.5911 15.7056 17.5911 15.9688 17.328L30.7943 2.50255C31.062 2.24397 31.0694 1.8174 30.8109 1.54966C30.5523 1.28198 30.1257 1.27459 29.858 1.5331C29.8523 1.53854 29.8468 1.54403 29.8414 1.54966H29.8401Z" fill="#888888"/>
<path d="M15.4917 29.656C15.3129 29.6563 15.1412 29.5856 15.0146 29.4592L0.189157 14.6338C-0.0694246 14.3661 -0.0619697 13.9395 0.20571 13.6809C0.466882 13.4287 0.880878 13.4287 1.14199 13.6809L15.4917 28.0292L29.84 13.6796C30.1077 13.421 30.5343 13.4284 30.7929 13.6961C31.0452 13.9573 31.0452 14.3713 30.7929 14.6325L15.9675 29.4579C15.8414 29.5843 15.6703 29.6556 15.4917 29.656Z" fill="white"/>
<path d="M15.4917 17.5261C15.3129 17.5265 15.1412 17.4557 15.0146 17.3293L0.189157 2.50388C-0.0694246 2.2362 -0.0619697 1.80957 0.20571 1.55098C0.466882 1.29878 0.880878 1.29878 1.14205 1.55098L15.4917 15.8993L29.8401 1.54966C30.0987 1.28198 30.5252 1.27459 30.793 1.5331C31.0607 1.79162 31.0681 2.21826 30.8095 2.486C30.8041 2.49162 30.7986 2.49712 30.793 2.50255L15.9675 17.328C15.8414 17.4544 15.6703 17.5257 15.4917 17.5261Z" fill="white"/>
</g>
<defs>
<clipPath id="clip0">
<rect width="31" height="31" fill="white"/>
</clipPath>
</defs>
</svg>
