<svg width="94" height="94" viewBox="0 0 94 94" fill="none" xmlns="http://www.w3.org/2000/svg">
<g id="brain 1" clip-path="url(#clip0)">
<g id="Group">
<path id="Vector" d="M83.7419 34.4553C83.5509 34.145 83.4555 33.787 83.4794 33.429C84.0044 25.9591 82.6918 20.47 79.5893 17.1288C76.9879 14.3365 73.9092 13.9308 73.1217 13.8831C72.5012 14.0979 71.9522 14.3365 71.4272 14.5991C76.2481 17.0095 79.5654 21.9735 79.5654 27.7252C79.5654 33.7154 75.9617 38.8704 70.8067 41.1376C74.1002 41.6627 77.2027 40.5887 77.4175 40.5171C78.2528 40.2069 79.2074 40.6603 79.4938 41.4956C79.804 42.3309 79.3745 43.2617 78.5153 43.5719C78.3005 43.6435 75.7946 44.5266 72.6444 44.5266C70.3055 44.5266 67.5848 44.0254 65.1983 42.3548C65.1028 42.3548 64.9835 42.3548 64.888 42.3548C59.9001 42.3548 55.5088 39.8728 52.8597 36.0781C52.5734 36.2929 52.2392 36.3884 51.9051 36.3884C51.5471 36.3884 51.1891 36.2691 50.9028 36.0304C50.1868 35.4815 50.0675 34.4553 50.6402 33.7393C50.8312 33.4768 51.0221 33.2143 51.213 32.9517C50.5686 31.305 50.2345 29.5389 50.2345 27.6774C50.2345 22.952 52.454 18.7756 55.9145 16.0787C56.1293 15.7685 56.4396 15.5537 56.7976 15.4582C59.1125 13.9308 61.9048 13.0239 64.888 13.0239C65.7233 13.0239 66.5347 13.0955 67.3223 13.2387C68.2531 12.5228 69.3748 11.8784 70.6635 11.3056C68.2053 6.93821 64.5778 7.60644 64.1482 7.70191C63.8857 7.74964 63.647 7.74964 63.3845 7.70191L60.449 11.6875C60.1388 12.117 59.6376 12.3557 59.1364 12.3557C58.8023 12.3557 58.4682 12.2602 58.1579 12.0216C57.4419 11.4965 57.2749 10.4703 57.8238 9.75435L60.8309 5.72106C54.8167 1.09113 49.9959 4.26526 48.5878 5.41081V84.7878C50.7834 88.7018 53.1461 90.7304 55.6282 90.7543C55.652 90.7543 55.6759 90.7543 55.6998 90.7543C59.924 90.7543 64.1243 85.1458 65.3892 82.9741C65.6279 82.5684 66.0574 82.2581 66.5348 82.1865C68.6588 81.8285 70.1623 80.9694 70.9738 79.6567C72.4773 77.1747 71.3556 73.6903 71.3556 73.6665C71.0931 72.855 71.4749 71.9959 72.2625 71.6618C78.921 68.7979 79.4938 62.569 79.2551 59.1562C77.3936 60.2063 75.556 60.7313 73.8138 60.7313C73.0023 60.7313 72.1909 60.612 71.4033 60.3972C66.129 58.8698 63.7902 52.6886 63.6947 52.4261C63.3845 51.5908 63.8141 50.6362 64.6494 50.3259C65.4847 50.0156 66.4154 50.4452 66.7495 51.2805C66.7734 51.3521 68.6349 56.1968 72.3341 57.2708C74.4104 57.8674 76.8208 57.1515 79.4699 55.1229C79.5893 55.0274 79.7086 54.9558 79.8279 54.9081C91.7369 46.7461 84.076 34.9564 83.7419 34.4553ZM63.8141 68.5592C63.8141 69.4661 63.0742 70.1821 62.1912 70.1821C57.4181 70.1821 54.6258 78.1293 54.6019 78.2009C54.3633 78.893 53.7428 79.3226 53.0507 79.3226C52.8836 79.3226 52.7165 79.2988 52.5256 79.2272C51.6665 78.9408 51.213 78.01 51.4994 77.1747C51.5949 76.9122 53.0507 72.6403 56.0339 69.7048C56.0339 69.7048 56.0339 69.7048 56.0339 69.6809C56.0816 69.4423 57.1794 64.335 51.9051 59.0368C51.2607 58.3925 51.2607 57.3663 51.9051 56.7219C52.5495 56.0775 53.5757 56.0775 54.2201 56.7219C58.2295 60.7313 59.2557 64.7646 59.3989 67.4375C60.2581 67.1034 61.1888 66.9125 62.1912 66.9125C63.0981 66.9364 63.8141 67.6523 63.8141 68.5592Z" fill="white"/>
<path id="Vector_2" d="M45.3421 5.33922C43.7431 4.02661 38.6836 0.876351 32.4069 6.31771C33.982 8.37016 36.4879 11.6159 37.4664 12.5944C38.1108 13.2387 38.1108 14.265 37.4664 14.9093C37.1562 15.2196 36.7266 15.3866 36.3209 15.3866C35.9151 15.3866 35.4856 15.2196 35.1753 14.9093C33.8388 13.5729 30.4977 9.18159 29.3282 7.65419C28.1588 7.55872 25.3427 7.74965 23.3141 11.3534C31.7625 15.0525 31.858 22.5702 31.858 22.9043C31.858 23.8112 31.1182 24.5272 30.2351 24.5272C29.3282 24.5272 28.6123 23.8112 28.6123 22.9043C28.6123 22.6179 28.4213 16.5561 20.8559 13.8831C19.9968 13.9547 16.9658 14.3843 14.3884 17.1766C11.3097 20.5416 9.99708 26.0069 10.546 33.4291C10.5699 33.787 10.4744 34.145 10.2835 34.4553C9.94935 34.9565 2.24076 46.937 14.3884 55.0274L14.4122 55.0513C14.4361 55.0752 14.46 55.0752 14.46 55.099C16.5363 56.6742 18.4455 57.4617 20.1877 57.4379C21.4526 54.5024 23.8869 52.2113 26.9178 51.1612C26.2496 47.8439 26.7746 44.4072 27.6576 41.6866C26.7508 41.9014 25.8677 41.9968 25.0086 41.9968C18.541 41.9968 13.9588 36.3645 13.744 36.0781C13.1712 35.386 13.2905 34.3598 14.0065 33.787C14.6986 33.2143 15.7248 33.3336 16.2976 34.0496C16.5124 34.3121 21.739 40.6603 28.135 38.1306C31.4523 36.818 33.5047 35.1951 35.1515 33.9064C37.18 32.3312 39.0893 30.8277 41.6429 32.0926C42.4543 32.4983 42.7646 33.4768 42.3827 34.2882C41.977 35.0996 40.9985 35.4099 40.1871 35.0281C39.5666 34.7178 39.137 34.9326 37.1562 36.4839C35.8674 37.5101 34.1968 38.7988 31.8341 40.016C31.8103 40.1353 31.7625 40.2546 31.7148 40.374C31.5716 40.6842 29.1134 45.7199 30.1158 50.5407C30.3067 50.5407 30.5215 50.5168 30.7124 50.5168C33.3854 50.5168 35.8674 51.4476 37.8005 52.9989C37.896 52.5932 38.1108 52.2352 38.4926 51.9965C39.0177 51.6385 41.5713 49.6577 39.5666 46.6506C39.0654 45.9108 39.2802 44.8846 40.02 44.3834C40.7599 43.8822 41.7861 44.097 42.2873 44.8368C45.175 49.1804 42.693 53.1182 40.3064 54.7172C40.1155 54.8365 39.9246 54.9081 39.7337 54.9558C41.2372 56.889 42.1441 59.3233 42.1441 61.9485C42.1441 67.008 38.8506 71.2799 34.2923 72.7835C32.7888 76.1246 33.3377 78.7021 33.3854 78.8453C33.5763 79.7284 33.0513 80.5875 32.1921 80.8023C32.0728 80.8262 31.9296 80.85 31.8103 80.85C31.0704 80.85 30.4261 80.3727 30.2351 79.6329C30.1874 79.4658 29.5908 76.8645 30.6409 73.3562C24.3881 73.2846 19.3524 68.2251 19.3524 61.9485C19.3524 61.5189 19.3763 61.0893 19.424 60.6836C17.9205 60.5643 16.3931 60.0392 14.8179 59.1801C14.5793 62.6167 15.1759 68.8218 21.8344 71.6618C22.622 71.9959 23.0038 72.8789 22.7413 73.6665C22.7413 73.6904 21.6196 77.1986 23.1232 79.6568C23.9346 80.9932 25.4143 81.8285 27.5622 82.1865C28.0395 82.2581 28.4452 82.5445 28.7077 82.9741C29.9726 85.1459 34.1968 90.7543 38.3972 90.7543C38.421 90.7543 38.4449 90.7543 38.4688 90.7543C40.9269 90.7066 43.2658 88.7496 45.4614 84.8833V5.33922H45.3421ZM20.0922 32.5938C16.059 32.5938 12.7655 29.3003 12.7655 25.267C12.7655 21.2337 16.059 17.9403 20.0922 17.9403C24.1255 17.9403 27.419 21.2337 27.419 25.267C27.419 29.3003 24.1255 32.5938 20.0922 32.5938Z" fill="white"/>
</g>
<path id="Vector_3" d="M86.7489 33.1427C87.2501 25.0045 85.6272 18.8472 81.9519 14.9094C79.0881 11.8307 75.723 10.9477 74.0285 10.709C71.4272 5.21992 67.0121 4.16983 64.3391 4.40849C56.5112 -2.87052 49.614 0.685453 46.9888 2.54697C44.3636 0.661588 37.4664 -2.89439 29.6624 4.38462C26.9655 4.1221 22.5504 5.19606 19.9729 10.6852C18.2785 10.9238 14.9134 11.8068 12.0495 14.8855C8.37423 18.8472 6.75137 24.9807 7.25254 33.1188C6.56044 34.2882 4.93758 37.4146 4.4364 41.3286C3.88749 45.7676 4.72279 52.0204 11.6677 57.1038C10.8563 61.853 11.62 70.0151 19.2092 74.0245C18.899 75.7428 18.6842 78.7499 20.2354 81.3035C21.4526 83.3082 23.4573 84.6447 26.2018 85.2414C27.5861 87.3893 32.3592 94 38.3256 94C38.3733 94 38.3972 94 38.4449 94C41.6429 93.9523 44.5306 92.0669 47.0365 88.3916C49.5663 92.0669 52.454 93.9762 55.6282 94C55.6759 94 55.6998 94 55.7475 94C61.7139 94 66.487 87.3893 67.8712 85.2414C70.6158 84.6447 72.6205 83.3082 73.8376 81.3035C75.3889 78.7499 75.1741 75.7428 74.8638 74.0245C82.4292 70.0151 83.1929 61.8292 82.4054 57.1038C94.4814 48.2258 88.2763 35.7918 86.7489 33.1427ZM79.8279 54.8843C79.7086 54.932 79.5892 55.0036 79.4699 55.0991C76.8208 57.1277 74.4104 57.8436 72.3341 57.247C68.6588 56.173 66.7734 51.3283 66.7495 51.2567C66.4393 50.4214 65.5085 49.9918 64.6494 50.3021C63.8141 50.6123 63.3845 51.5431 63.6947 52.4023C63.7902 52.6648 66.129 58.846 71.4033 60.3734C72.1909 60.612 73.0023 60.7075 73.8138 60.7075C75.5798 60.7075 77.3936 60.1825 79.2551 59.1324C79.4938 62.5452 78.921 68.7979 72.2625 71.638C71.4988 71.9721 71.0931 72.8551 71.3556 73.6427C71.3556 73.6665 72.4773 77.1748 70.9738 79.6329C70.1623 80.9694 68.6826 81.8047 66.5347 82.1627C66.0574 82.2343 65.6517 82.5207 65.3892 82.9503C64.1243 85.122 59.9001 90.7305 55.6998 90.7305C55.6759 90.7305 55.652 90.7305 55.6282 90.7305C53.1461 90.6827 50.7834 88.678 48.5878 84.764V5.41085C49.9959 4.24143 54.7929 1.09117 60.8309 5.7211L57.8477 9.75439C57.2987 10.4704 57.4658 11.4966 58.1818 12.0216C58.4682 12.2364 58.8261 12.3557 59.1603 12.3557C59.6614 12.3557 60.1388 12.1171 60.4729 11.6875L63.4322 7.72581C63.6709 7.77354 63.9334 7.79741 64.1959 7.72581C64.6255 7.63035 68.2531 6.96211 70.7112 11.3295C69.3986 11.9023 68.3008 12.5467 67.37 13.2626C62.1912 17.1766 62.1196 22.618 62.1196 22.9043C62.1196 23.8112 62.8594 24.5272 63.7425 24.5272C64.6255 24.5272 65.3653 23.7874 65.3653 22.9043C65.3653 22.8566 65.4369 17.5346 71.4272 14.5991C71.9522 14.3366 72.525 14.0979 73.1217 13.8831C73.9092 13.9309 76.9879 14.3366 79.5892 17.1289C82.7156 20.4701 84.0282 25.9591 83.4793 33.4291C83.4555 33.7871 83.5509 34.1451 83.7419 34.4553C84.076 34.9565 91.7368 46.7461 79.8279 54.8843ZM38.3494 90.7543C38.3256 90.7543 38.3017 90.7543 38.2779 90.7543C34.0536 90.7543 29.8533 85.1459 28.5884 82.9741C28.3498 82.5684 27.9202 82.2582 27.4429 82.1866C25.3188 81.8286 23.8153 80.9694 23.0039 79.6568C21.5003 77.1748 22.622 73.6904 22.622 73.6665C22.8845 72.8551 22.5027 71.9959 21.7151 71.6618C15.0805 68.8218 14.4838 62.6167 14.6986 59.1801C16.2737 60.0631 17.825 60.5643 19.3047 60.6836C19.5672 60.7075 19.8297 60.7314 20.0684 60.7314C20.8798 60.7314 21.6912 60.612 22.4788 60.3972C25.3427 59.5619 27.3235 57.3902 28.5645 55.5048C29.4476 56.9129 30.6647 58.2016 32.3114 59.2994C32.5978 59.4903 32.9081 59.5619 33.2183 59.5619C33.7434 59.5619 34.2684 59.2994 34.5787 58.846C35.0799 58.1061 34.8651 57.0799 34.1252 56.5787C31.6671 54.932 30.4977 52.7841 30.0442 50.5646C29.0419 45.7437 31.5 40.6842 31.6432 40.3979C31.6909 40.2785 31.7387 40.1592 31.7625 40.0399C34.1252 38.8227 35.772 37.5101 37.0846 36.5078C39.0654 34.9565 39.495 34.7417 40.1155 35.0519C40.9269 35.4577 41.9054 35.1235 42.3111 34.3121C42.7169 33.5007 42.3827 32.5222 41.5713 32.1165C39.0177 30.8516 37.1084 32.3313 35.0799 33.9303C33.4331 35.219 31.3807 36.8419 28.0634 38.1545C21.6912 40.7081 16.4647 34.3598 16.226 34.0735C15.6532 33.3814 14.627 33.262 13.9349 33.8109C13.2428 34.3837 13.1235 35.4099 13.6724 36.102C13.9111 36.3884 18.4933 42.0207 24.937 42.0207C25.7961 42.0207 26.6792 41.9253 27.5861 41.7105C26.703 44.4311 26.178 47.8678 26.8462 51.1851C26.8701 51.3283 26.9178 51.4954 26.9417 51.6386C26.4166 52.808 24.6028 56.3639 21.5242 57.247C21.0707 57.3902 20.5934 57.4379 20.1161 57.4379C18.3739 57.4618 16.4647 56.6742 14.3884 55.0991C14.3645 55.0752 14.3406 55.0752 14.3406 55.0513L14.3168 55.0275C2.16917 46.937 9.87776 34.9565 10.2119 34.4553C10.4028 34.1451 10.4983 33.7871 10.4744 33.4291C9.94936 26.0069 11.2381 20.5417 14.3168 17.1766C16.8704 14.3843 19.9013 13.9547 20.7843 13.8831C28.3259 16.5561 28.5168 22.618 28.5407 22.9043C28.5407 23.8112 29.2805 24.5272 30.1635 24.5272C31.0704 24.5272 31.7864 23.7874 31.7864 22.9043C31.7864 22.5702 31.6909 15.0526 23.2425 11.3534C25.2711 7.74968 28.0872 7.55875 29.2566 7.65422C30.4261 9.18161 33.7672 13.5729 35.1037 14.9094C35.414 15.2196 35.8436 15.3867 36.2493 15.3867C36.655 15.3867 37.0846 15.2196 37.3948 14.9094C38.0392 14.265 38.0392 13.2388 37.3948 12.5944C36.4402 11.6159 33.9104 8.39405 32.3353 6.31774C38.612 0.876379 43.6715 4.02664 45.2705 5.33925V84.8834C43.1703 88.7257 40.8076 90.7066 38.3494 90.7543Z" fill="#602F75"/>
<g id="Group_2">
<path id="Vector_4" d="M30.5454 73.3324C31.2136 71.089 32.5501 68.4877 35.1514 65.8863C35.7958 65.2419 36.822 65.2419 37.4664 65.8863C38.1108 66.5307 38.1108 67.5569 37.4664 68.2013C35.8913 69.7764 34.8889 71.3515 34.2445 72.7835C38.8029 71.2799 42.0963 67.008 42.0963 61.9485C42.0963 59.2994 41.1894 56.889 39.6859 54.9559C39.5904 54.9797 39.4711 55.0036 39.3756 55.0036C38.8506 55.0036 38.3255 54.7411 38.0153 54.2876C37.7528 53.9058 37.6812 53.4523 37.7766 53.0466C35.8197 51.4953 33.3615 50.5646 30.6885 50.5646C30.4976 50.5646 30.2828 50.5646 30.0919 50.5884C30.5454 52.8079 31.7386 54.9559 34.1729 56.6026C34.9128 57.1038 35.1276 58.1061 34.6264 58.8698C34.3161 59.3471 33.7911 59.5858 33.266 59.5858C32.9558 59.5858 32.6455 59.4903 32.3591 59.3233C30.7124 58.2254 29.4953 56.9367 28.6122 55.5286C27.3712 57.414 25.3665 59.5858 22.5265 60.4211C21.7389 60.6597 20.9275 60.7552 20.1161 60.7552C19.8536 60.7552 19.6149 60.7313 19.3524 60.7075C19.3046 61.1132 19.2808 61.5428 19.2808 61.9724C19.2569 68.1774 24.3164 73.2608 30.5454 73.3324Z" fill="#FFE600"/>
<path id="Vector_5" d="M20.1877 57.4378C20.665 57.4378 21.1423 57.3662 21.5958 57.2469C24.6744 56.3639 26.4882 52.8079 27.0133 51.6385C26.9655 51.4953 26.9417 51.3283 26.9178 51.1851C23.8869 52.2113 21.4526 54.5024 20.1877 57.4378Z" fill="#FFE600"/>
</g>
<g id="Group_3">
<path id="Vector_6" d="M62.5731 39.8011C60.1388 36.5793 59.0887 33.787 58.325 31.7345C57.5852 29.8014 57.2988 29.1809 56.8215 28.99C55.9862 31.3288 54.8167 33.7154 53.17 35.7917C53.0746 35.911 52.9552 36.0065 52.8359 36.1019C55.485 39.8966 59.8763 42.3786 64.8642 42.3786C64.9596 42.3786 65.079 42.3786 65.1744 42.3786C64.2675 41.7104 63.3606 40.8751 62.5731 39.8011Z" fill="#00E7FF"/>
<path id="Vector_7" d="M56.7976 15.4821C56.9408 15.4344 57.084 15.4105 57.2272 15.4105C58.1341 15.3866 58.8739 16.1265 58.8739 17.0095C58.8739 17.272 58.9216 21.186 57.7522 25.8398C59.8047 26.4841 60.5683 28.465 61.3559 30.5652C62.0957 32.5221 63.0265 34.9803 65.1506 37.8203C66.7018 39.8966 68.7781 40.7796 70.759 41.1138C75.9139 38.8465 79.5176 33.6916 79.5176 27.7013C79.5176 21.9497 76.2003 16.9618 71.3795 14.5752C65.3892 17.5345 65.3176 22.8327 65.3176 22.8804C65.3176 23.7873 64.5778 24.5033 63.6947 24.5033C62.8117 24.5033 62.0719 23.7635 62.0719 22.8804C62.0719 22.594 62.1435 17.1527 67.3223 13.2387C66.5348 13.0955 65.7233 13.0239 64.888 13.0239C61.9048 13.0478 59.1125 13.9547 56.7976 15.4821Z" fill="#00E7FF"/>
<path id="Vector_8" d="M55.6282 17.0811C55.6282 16.7231 55.7236 16.389 55.9145 16.1265C52.454 18.7994 50.2345 22.9998 50.2345 27.7252C50.2345 29.5867 50.5925 31.3766 51.213 32.9995C55.6998 26.5557 55.6282 17.1766 55.6282 17.0811Z" fill="#00E7FF"/>
</g>
<path id="Vector_9" d="M20.0893 32.5873C24.1358 32.5873 27.4161 29.307 27.4161 25.2606C27.4161 21.2141 24.1358 17.9338 20.0893 17.9338C16.0429 17.9338 12.7626 21.2141 12.7626 25.2606C12.7626 29.307 16.0429 32.5873 20.0893 32.5873Z" fill="#EA3457"/>
<g id="Group_4">
<path id="Vector_10" d="M37.4664 65.8863C36.822 65.2419 35.7958 65.2419 35.1515 65.8863C32.5501 68.4876 31.2136 71.089 30.5454 73.3324C29.4953 76.8406 30.1158 79.442 30.1397 79.609C30.3306 80.3489 30.975 80.8262 31.7148 80.8262C31.8341 80.8262 31.9773 80.8023 32.0967 80.7785C32.9558 80.5637 33.5047 79.6806 33.2899 78.8215C33.2661 78.6783 32.6933 76.1008 34.1968 72.7596C34.8412 71.3277 35.8436 69.7764 37.4187 68.1774C38.0869 67.5569 38.0869 66.5307 37.4664 65.8863Z" fill="#602F75"/>
<path id="Vector_11" d="M65.1744 37.8442C63.0265 34.9803 62.1196 32.546 61.3798 30.589C60.5922 28.4889 59.8285 26.508 57.7761 25.8637C58.9216 21.2099 58.8977 17.2959 58.8977 17.0334C58.8739 16.1265 58.1579 15.3866 57.251 15.4344C57.1078 15.4344 56.9646 15.4582 56.8214 15.506C56.4635 15.6014 56.1532 15.8401 55.9384 16.1265C55.7475 16.389 55.6282 16.7231 55.652 17.0811C55.652 17.1766 55.7236 26.5558 51.2369 32.9995C51.046 33.262 50.855 33.5245 50.6641 33.787C50.1152 34.503 50.2345 35.5292 50.9266 36.0781C51.2369 36.3168 51.571 36.4361 51.929 36.4361C52.2631 36.4361 52.5972 36.3168 52.8836 36.1259C53.0029 36.0304 53.1223 35.9349 53.2177 35.8156C54.8645 33.7393 56.0339 31.3527 56.8692 29.0139C57.3226 29.2048 57.6329 29.8253 58.3727 31.7585C59.1364 33.8109 60.1865 36.6032 62.6208 39.825C63.4322 40.899 64.3152 41.7343 65.246 42.3787C67.6326 44.0493 70.3294 44.5504 72.6921 44.5504C75.8423 44.5504 78.3721 43.6674 78.563 43.5958C79.3983 43.2856 79.8518 42.3548 79.5415 41.5195C79.2313 40.6842 78.3005 40.2308 77.4652 40.541C77.2504 40.6126 74.1479 41.7104 70.8544 41.1615C68.802 40.8035 66.7257 39.9205 65.1744 37.8442Z" fill="#602F75"/>
<path id="Vector_12" d="M37.9915 54.2399C38.3017 54.7172 38.8268 54.9558 39.3518 54.9558C39.4473 54.9558 39.5666 54.932 39.6621 54.9081C39.853 54.8604 40.0678 54.7888 40.2348 54.6695C42.6214 53.0705 45.1034 49.1326 42.2157 44.7891C41.7145 44.0493 40.7121 43.8345 39.9485 44.3357C39.2086 44.8368 38.9938 45.8392 39.495 46.6029C41.4997 49.61 38.9461 51.5908 38.4211 51.9488C38.0631 52.1874 37.8244 52.5693 37.729 52.9511C37.6812 53.4046 37.7528 53.858 37.9915 54.2399Z" fill="#602F75"/>
<path id="Vector_13" d="M62.1912 66.9364C61.1888 66.9364 60.2581 67.1273 59.3989 67.4615C59.2318 64.8124 58.2295 60.7552 54.2201 56.7458C53.5757 56.1014 52.5495 56.1014 51.9051 56.7458C51.2607 57.3902 51.2607 58.4164 51.9051 59.0608C57.2033 64.3589 56.1054 69.4662 56.0338 69.7048C56.0338 69.7048 56.0338 69.7048 56.0338 69.7287C53.0506 72.6642 51.5948 76.9361 51.4994 77.1986C51.213 78.0578 51.6664 78.9647 52.5256 79.2511C52.6927 79.2988 52.8597 79.3465 53.0506 79.3465C53.7427 79.3465 54.3633 78.917 54.6019 78.2249C54.6258 78.1533 57.418 70.206 62.1912 70.206C63.0981 70.206 63.814 69.4662 63.814 68.5831C63.814 67.7001 63.0981 66.9364 62.1912 66.9364Z" fill="#602F75"/>
</g>
</g>
<defs>
<clipPath id="clip0">
<rect width="94" height="94" fill="white"/>
</clipPath>
</defs>
</svg>
